<mxfile host="app.diagrams.net" modified="2024-03-07T07:51:28.612Z" agent="Mozilla/5.0 (Macintosh; Intel Mac OS X 10_15_7) AppleWebKit/537.36 (KHTML, like Gecko) Chrome/122.0.0.0 Safari/537.36" version="24.0.2" etag="8QUBoE7N0WgXvK8yUti1" type="github">
  <diagram name="Page-1" id="hvDW7tI-hmfH3FgRHvS9">
    <mxGraphModel>
      <root>
        <mxCell id="0" />
        <mxCell id="1" parent="0" />
      </root>
    </mxGraphModel>
  </diagram>
</mxfile>
